<?xml version="1.0" standalone="no"?>
<!DOCTYPE svg PUBLIC "-//W3C//DTD SVG 20010904//EN"
 "http://www.w3.org/TR/2001/REC-SVG-20010904/DTD/svg10.dtd">
<svg version="1.0" xmlns="http://www.w3.org/2000/svg"
 width="500.000000pt" height="500.000000pt" viewBox="0 0 500.000000 500.000000"
 preserveAspectRatio="xMidYMid meet">
<metadata>
Created by potrace 1.14, written by Peter Selinger 2001-2017
</metadata>
<g transform="translate(0.000000,500.000000) scale(0.100000,-0.100000)"
fill="#000000" stroke="none">
<path d="M2020 4835 c-223 -13 -466 -26 -540 -29 -252 -10 -319 -18 -345 -38
-20 -15 -278 -341 -494 -622 -30 -39 -87 -111 -126 -161 -204 -257 -205 -260
-163 -310 l23 -26 235 0 c129 1 274 4 321 7 101 8 78 27 201 -171 44 -71 86
-137 93 -145 7 -8 15 -50 19 -93 9 -98 47 -233 90 -314 l33 -62 -131 -92
c-429 -304 -467 -336 -512 -433 -38 -83 -44 -142 -44 -431 0 -294 8 -364 48
-438 48 -90 24 -71 1005 -769 142 -100 317 -225 390 -277 73 -51 137 -98 142
-105 20 -22 166 -87 241 -106 112 -29 334 -28 441 1 82 22 231 85 248 105 9
10 72 55 251 180 23 16 149 106 280 199 130 94 254 181 275 195 34 23 143 100
477 339 191 136 257 211 287 326 12 47 15 121 15 366 0 346 -6 385 -73 476
-45 61 -49 64 -427 333 -173 123 -422 300 -554 394 -131 94 -248 178 -260 186
-11 8 -84 59 -161 114 -167 118 -239 159 -320 181 -58 16 -61 19 -83 69 -62
141 -209 308 -340 386 -40 23 -78 52 -84 64 -6 11 -40 65 -75 119 l-65 99 86
111 c47 62 117 153 155 202 81 106 90 136 51 175 -26 26 -69 25 -610 -5z m507
-931 c142 -107 232 -238 274 -401 23 -92 25 -238 4 -337 -40 -187 -187 -377
-366 -471 -189 -99 -455 -103 -639 -10 l-53 27 41 24 c45 27 82 91 82 140 0
16 -8 47 -18 68 -17 37 -17 43 0 125 10 47 21 123 24 169 l7 83 72 33 c216
100 397 292 481 511 16 41 32 75 36 75 3 0 28 -16 55 -36z m523 -447 c85 -52
1451 -1025 1488 -1060 92 -87 112 -212 54 -330 -19 -38 -50 -81 -72 -100 -94
-80 -1419 -1016 -1492 -1053 -98 -51 -173 -68 -298 -69 -116 0 -200 18 -283
59 -54 28 -348 234 -1281 900 -303 216 -332 252 -324 394 4 75 30 136 81 190
18 19 142 112 275 208 l244 175 67 -63 c37 -35 83 -74 102 -87 l36 -24 -86
-86 c-120 -119 -161 -208 -161 -351 0 -126 39 -222 128 -321 135 -149 327
-229 550 -229 174 0 313 40 444 127 288 191 330 535 93 770 l-73 71 68 46
c128 87 236 224 297 373 52 127 65 206 61 361 -4 153 -5 152 82 99z m-1336
-237 c-3 -30 -13 -85 -21 -122 -12 -54 -18 -68 -33 -68 -28 0 -81 -49 -100
-93 l-18 -40 -36 54 c-19 30 -46 84 -60 120 -25 68 -50 184 -42 197 2 4 74 7
160 7 l157 0 -7 -55z m351 -756 c54 -4 110 -1 173 10 50 9 94 16 97 16 3 0 5
-81 5 -180 0 -196 -4 -212 -57 -261 -89 -84 -248 -95 -365 -26 -83 48 -88 65
-88 289 l0 195 78 -18 c42 -11 113 -22 157 -25z m-367 -416 c71 -161 283 -257
475 -216 104 23 163 54 228 118 76 76 90 117 96 303 l6 148 29 -28 c84 -80
109 -234 56 -343 -52 -105 -172 -202 -303 -243 -101 -32 -299 -32 -400 0 -132
42 -251 136 -302 241 -23 48 -28 69 -27 132 1 86 22 145 76 205 l33 38 6 -154
c4 -127 9 -162 27 -201z m-128 -689 c344 -243 653 -462 687 -486 90 -64 196
-109 298 -128 176 -34 409 -4 553 69 26 13 101 62 167 108 237 166 1261 892
1296 920 20 15 40 28 44 28 4 0 5 -64 3 -142 -3 -139 -4 -145 -37 -204 -18
-34 -45 -73 -59 -87 -65 -61 -1423 -1014 -1502 -1054 -115 -58 -244 -81 -370
-65 -94 11 -177 37 -237 73 -90 55 -1451 1027 -1486 1062 -67 67 -77 101 -77
270 l0 149 48 -35 c26 -19 328 -234 672 -478z"/>
<path d="M3663 2478 c-252 -92 -275 -386 -38 -497 227 -106 505 29 505 246 0
58 -40 142 -87 184 -97 84 -256 112 -380 67z"/>
</g>
</svg>
